<?xml version="1.0" standalone="no"?>
<!DOCTYPE svg PUBLIC "-//W3C//DTD SVG 20010904//EN"
 "http://www.w3.org/TR/2001/REC-SVG-20010904/DTD/svg10.dtd">
<svg version="1.0" xmlns="http://www.w3.org/2000/svg"
 width="1396.000000pt" height="655.000000pt" viewBox="0 0 1396.000000 655.000000"
 preserveAspectRatio="xMidYMid meet">

<g transform="translate(0.000000,655.000000) scale(0.100000,-0.100000)"
fill="#000000" stroke="none">
<path d="M0 3275 l0 -3275 6980 0 6980 0 0 3275 0 3275 -6980 0 -6980 0 0
-3275z m2532 2313 c3 -657 4 -695 22 -731 24 -49 67 -92 120 -120 l41 -22 800
0 800 0 54 30 c58 32 103 90 121 155 6 21 10 299 10 708 0 444 3 673 10 670 5
-1 143 -70 305 -153 l295 -150 0 -2772 0 -2773 -305 0 -305 0 0 653 c0 709 0
711 -55 783 -15 19 -45 47 -68 62 l-42 27 -800 3 c-529 2 -812 0 -835 -7 -47
-14 -115 -73 -143 -125 l-22 -41 -3 -678 -3 -677 -302 2 -302 3 -2 2770 -3
2770 298 152 c163 84 300 152 304 153 4 0 9 -312 10 -692z m-1342 -2573 l0
-2585 -187 2 -188 3 0 2490 0 2490 180 92 c99 51 183 92 188 93 4 0 7 -1163 7
-2585z m4848 2492 l172 -87 0 -2495 0 -2495 -185 0 -185 0 0 2586 c0 2063 3
2585 13 2582 6 -2 90 -43 185 -91z m-4348 -387 l0 -250 -135 0 -135 0 0 250 0
250 135 0 135 0 0 -250z m3920 0 l0 -250 -135 0 -135 0 0 250 0 250 135 0 135
0 0 -250z m-3920 -1010 l0 -250 -135 0 -135 0 0 250 0 250 135 0 135 0 0 -250z
m3920 0 l0 -250 -135 0 -135 0 0 250 0 250 135 0 135 0 0 -250z m2670 -15 l0
-195 -510 0 -510 0 0 -205 0 -205 460 0 460 0 0 -195 0 -195 -460 0 -460 0 0
-389 c0 -345 -2 -390 -16 -395 -27 -11 -404 -7 -425 4 -19 10 -19 32 -19 984
0 535 3 976 7 979 3 4 336 7 740 7 l733 0 0 -195z m700 -789 c0 -888 -2 -984
-16 -990 -20 -8 -392 -8 -421 0 l-23 6 0 977 c0 538 3 981 7 984 3 4 107 7
230 7 l223 0 0 -984z m820 199 l0 -785 450 0 450 0 0 -199 c0 -198 0 -199 -22
-205 -30 -8 -1286 -8 -1315 0 l-23 6 0 977 c0 538 3 981 7 984 3 4 107 7 230
7 l223 0 0 -785z m1771 620 c37 -88 72 -171 77 -185 6 -14 36 -86 66 -160 141
-349 305 -735 314 -738 6 -2 14 7 17 20 4 13 15 41 25 63 10 22 46 108 80 190
34 83 73 175 86 205 13 30 62 150 109 265 48 116 93 224 100 240 8 17 33 77
56 135 23 58 47 111 52 118 8 9 74 12 296 10 l286 -3 3 -981 2 -982 -22 -6
c-34 -9 -401 -7 -415 2 -10 6 -13 149 -15 638 l-3 629 -43 -102 c-23 -56 -82
-195 -131 -310 -48 -114 -148 -351 -221 -526 -111 -264 -138 -320 -157 -328
-31 -12 -185 -12 -216 0 -19 8 -42 53 -126 258 -57 136 -109 262 -116 278 -7
17 -25 59 -40 95 -14 36 -32 79 -40 95 -7 17 -22 53 -33 80 -22 56 -116 283
-137 330 -7 17 -19 47 -26 68 -7 20 -17 37 -21 37 -4 0 -8 -278 -8 -619 l0
-619 -22 -6 c-30 -8 -376 -8 -405 0 l-23 6 0 984 0 984 292 -2 293 -3 66 -160z
m-9881 -1025 l0 -250 -135 0 -135 0 0 250 0 250 135 0 135 0 0 -250z m3920 0
l0 -250 -135 0 -135 0 0 250 0 250 135 0 135 0 0 -250z m-3920 -1010 l0 -250
-135 0 -135 0 0 250 0 250 135 0 135 0 0 -250z m3920 0 l0 -250 -135 0 -135 0
0 250 0 250 135 0 135 0 0 -250z m3394 -230 c32 -13 75 -40 105 -68 108 -102
136 -246 73 -375 -63 -127 -173 -193 -312 -185 -120 7 -220 73 -278 183 -23
43 -27 62 -27 140 0 75 4 97 24 135 43 83 127 155 211 181 50 15 148 9 204
-11z m2379 -9 c55 -26 95 -79 104 -135 l6 -36 -70 0 c-68 0 -71 1 -82 29 -15
35 -48 51 -104 51 -51 0 -87 -23 -87 -54 0 -35 27 -53 120 -76 108 -27 137
-38 178 -67 44 -33 62 -72 62 -135 0 -74 -30 -123 -99 -161 -47 -26 -68 -32
-142 -35 -166 -8 -266 55 -294 186 l-7 32 74 0 73 0 20 -37 c25 -47 56 -63
121 -63 86 0 134 60 84 105 -11 10 -68 31 -127 47 -60 16 -125 40 -145 53 -93
62 -99 187 -12 264 57 50 92 61 194 58 65 -2 97 -8 133 -26z m-3813 -106 l0
-125 100 0 100 0 0 125 0 125 80 0 80 0 0 -315 0 -315 -80 0 -80 0 0 125 0
125 -100 0 -100 0 0 -125 0 -125 -70 0 -70 0 0 315 0 315 70 0 70 0 0 -125z
m2412 -94 c3 -215 3 -220 27 -245 47 -50 161 -41 192 16 10 16 15 85 17 236
l4 212 69 0 70 0 -3 -243 -3 -244 -30 -48 c-47 -76 -103 -100 -230 -100 -108
0 -154 16 -202 67 -52 55 -57 87 -61 336 l-4 232 75 0 76 0 3 -219z m2528 154
l0 -65 -115 0 -115 0 0 -60 0 -60 110 0 110 0 0 -65 0 -65 -110 0 -110 0 0
-60 0 -60 115 0 115 0 0 -65 0 -65 -190 0 -190 0 0 315 0 315 190 0 190 0 0
-65z m-10820 -725 l0 -250 -135 0 -135 0 0 250 0 250 135 0 135 0 0 -250z
m3920 0 l0 -250 -135 0 -135 0 0 250 0 250 135 0 135 0 0 -250z"/>
<path d="M2673 4355 c-29 -15 -66 -42 -82 -61 -63 -71 -62 -55 -59 -980 3
-838 3 -839 25 -879 28 -52 68 -89 123 -114 44 -20 62 -21 835 -21 l790 0 51
24 c62 29 110 84 129 150 23 75 22 1658 0 1734 -19 62 -52 104 -114 140 l-46
27 -800 3 -800 2 -52 -25z"/>
<path d="M8811 1718 c-94 -46 -131 -171 -75 -253 34 -50 61 -71 110 -85 79
-22 168 23 205 105 23 51 23 89 0 140 -22 48 -54 79 -103 100 -51 21 -85 19
-137 -7z"/>
</g>
</svg>
